<?xml version="1.0" encoding="utf-8"?>
<!-- Generator: Adobe Illustrator 16.0.0, SVG Export Plug-In . SVG Version: 6.00 Build 0)  -->
<!DOCTYPE svg PUBLIC "-//W3C//DTD SVG 1.1//EN" "http://www.w3.org/Graphics/SVG/1.1/DTD/svg11.dtd">
<svg version="1.1" id="Layer_1" xmlns="http://www.w3.org/2000/svg" xmlns:xlink="http://www.w3.org/1999/xlink" x="0px" y="0px"
	 width="500px" height="69.662px" viewBox="0 0 500 69.662" enable-background="new 0 0 500 69.662" xml:space="preserve">
<g>
	<path fill="#F26A2E" d="M3.545,0h23.309c11.917,0,18.63,6.189,18.63,15.995c0,3.823-2.565,8.169-6.256,9.548
		c5.135,1.65,8.761,6.654,8.761,11.856c0,9.938-7.11,16.259-19.161,16.259H3.545V0z M26.328,21.729c4.54,0,7.175-1.978,7.175-5.733
		c0-3.745-2.635-5.792-7.175-5.792H15.527v11.525H26.328z M28.303,43.452c4.742,0,7.705-2.104,7.705-6.053
		c0-3.95-2.962-6.059-7.705-6.059H15.527v12.112H28.303z"/>
	<polygon fill="#F26A2E" points="72.691,33.184 65.383,41.616 65.383,53.658 53.4,53.658 53.4,0 65.383,0 65.383,25.28 86.845,0 
		101.526,0 80.456,24.293 102.648,53.658 87.704,53.658 	"/>
	<path fill="#18142F" d="M124.254,15.075h11.723v3.95c2.303-3.093,5.994-4.87,11.064-4.87c11.059,0,18.759,8.495,18.759,20.216
		c0,11.715-7.7,20.209-18.759,20.209c-5.07,0-8.761-1.776-11.064-4.871v20.013h-11.723V15.075z M154.349,34.37
		c0-5.929-3.557-10.211-9.158-10.211c-5.721,0-9.413,4.282-9.413,10.211c0,5.925,3.691,10.207,9.413,10.207
		C150.792,44.577,154.349,40.295,154.349,34.37"/>
	<path fill="#18142F" d="M169.043,34.37c0-11.721,7.701-20.216,18.764-20.216c5.07,0,8.752,1.777,11.064,4.87v-3.95h11.713v38.583
		h-11.713v-3.949c-2.312,3.095-5.994,4.871-11.064,4.871C176.744,54.58,169.043,46.085,169.043,34.37 M199.065,34.37
		c0-5.929-3.687-10.211-9.417-10.211c-5.596,0-9.148,4.282-9.148,10.211c0,5.925,3.552,10.207,9.148,10.207
		C195.378,44.577,199.065,40.295,199.065,34.37"/>
	<path fill="#18142F" d="M217.768,15.075h11.72v3.95c2.306-3.093,5.864-4.87,10.8-4.87c2.173,0,3.558,0.132,5.071,0.655
		l0.133,10.999c-1.647-0.853-3.686-1.316-5.993-1.316c-6.251,0-10.011,3.557-10.011,9.414v19.752h-11.72V15.075z"/>
	<polygon fill="#18142F" points="274.208,25.148 266.568,25.148 266.568,53.663 254.849,53.663 254.849,25.148 247.213,25.148 
		247.213,15.077 254.849,15.077 254.849,3.622 266.568,3.622 266.568,15.077 274.208,15.077 	"/>
	<path fill="#18142F" d="M278.024,15.075h11.718v3.95c2.308-3.093,5.869-4.87,10.806-4.87c8.95,0,15.073,6.519,15.073,17.186v22.318
		h-11.713V33.315c0-5.861-2.373-9.089-6.788-9.089c-4.604,0-7.377,3.625-7.377,9.615v19.817h-11.718V15.075z"/>
	<path fill="#18142F" d="M319.912,34.37c0-11.721,8.295-20.216,20.079-20.216c11.788,0,20.083,8.427,20.083,20.216
		c0,1.119-0.065,2.366-0.263,3.748h-28.245c0.922,4.485,4.018,7.05,8.425,7.05c3.358,0,6.127-1.181,7.113-3.031h11.789
		c-1.975,7.378-9.551,12.443-18.902,12.443C328.207,54.58,319.912,46.156,319.912,34.37 M348.622,30.547
		c-0.987-4.607-4.018-7.11-8.631-7.11c-4.605,0-7.502,2.503-8.49,7.11H348.622z"/>
	<path fill="#18142F" d="M365.347,15.075h11.72v3.95c2.306-3.093,5.868-4.87,10.804-4.87c2.169,0,3.553,0.132,5.071,0.655
		l0.128,10.999c-1.646-0.853-3.686-1.316-5.993-1.316c-6.251,0-10.011,3.557-10.011,9.414v19.752h-11.72V15.075z"/>
	<path fill="#18142F" d="M430.806,26.665h-11.328c-0.396-2.372-3.094-3.815-6.514-3.815c-3.557,0-6.127,1.244-6.127,2.961
		c0,1.908,2.57,2.828,9.154,3.883c11.392,1.708,15.475,5.467,15.475,12.115c0,7.899-8.296,12.771-18.105,12.771
		c-10.076,0-17.712-5.001-18.109-13.099h11.322c0.397,2.506,3.295,4.148,6.981,4.148c3.755,0,6.515-1.385,6.515-3.16
		c0-1.841-2.631-3.031-9.284-4.02c-9.213-1.381-15.271-4.211-15.271-12.047c0-7.509,7.831-12.248,17.644-12.248
		C422.773,14.154,430.35,19.027,430.806,26.665"/>
	<path fill="#18142F" d="M475.264,21.261l7.188-7.185c5.167-5.167,1.508-14.003-5.8-14.003h-25.975c-4.531,0-8.203,3.67-8.203,8.202
		V45.85c0,4.531,3.672,8.199,8.203,8.199h45.777l-21.19-21.188C472.063,29.659,472.063,24.467,475.264,21.261"/>
</g>
<g>
	<path fill="#F26A2E" d="M524.095,0.064h23.269c11.895,0,18.598,6.176,18.598,15.971c0,3.813-2.565,8.15-6.245,9.532
		c5.13,1.641,8.741,6.634,8.741,11.826c0,9.924-7.1,16.237-19.123,16.237h-25.239V0.064z M546.833,21.753
		c4.535,0,7.165-1.974,7.165-5.718c0-3.748-2.63-5.783-7.165-5.783h-10.779v11.501H546.833z M548.807,43.438
		c4.733,0,7.688-2.1,7.688-6.046c0-3.94-2.954-6.047-7.688-6.047h-12.753v12.093H548.807z"/>
	<polygon fill="#F26A2E" points="593.093,33.189 585.795,41.606 585.795,53.629 573.836,53.629 573.836,0.061 585.795,0.061 
		585.795,25.299 607.22,0.061 621.877,0.061 600.85,24.314 622.992,53.629 608.078,53.629 	"/>
	<path fill="#FFFFFF" d="M644.539,15.115h11.696v3.943c2.302-3.088,5.985-4.863,11.047-4.863c11.039,0,18.734,8.478,18.734,20.177
		c0,11.7-7.695,20.173-18.734,20.173c-5.062,0-8.745-1.771-11.047-4.862v19.979h-11.696V15.115z M674.58,34.372
		c0-5.92-3.55-10.188-9.142-10.188c-5.714,0-9.394,4.267-9.394,10.188c0,5.913,3.68,10.188,9.394,10.188
		C671.03,44.56,674.58,40.285,674.58,34.372"/>
	<path fill="#FFFFFF" d="M689.223,34.372c0-11.699,7.688-20.177,18.734-20.177c5.054,0,8.733,1.775,11.035,4.863v-3.943h11.699
		v38.515h-11.699v-3.946c-2.302,3.092-5.981,4.862-11.035,4.862C696.91,54.545,689.223,46.072,689.223,34.372 M719.187,34.372
		c0-5.92-3.676-10.188-9.397-10.188c-5.58,0-9.131,4.267-9.131,10.188c0,5.913,3.551,10.188,9.131,10.188
		C715.511,44.56,719.187,40.285,719.187,34.372"/>
	<path fill="#FFFFFF" d="M737.845,15.115h11.696v3.943c2.301-3.088,5.852-4.863,10.787-4.863c2.168,0,3.542,0.13,5.053,0.657
		l0.134,10.978c-1.645-0.859-3.683-1.317-5.981-1.317c-6.244,0-9.992,3.55-9.992,9.398v19.719h-11.696V15.115z"/>
	<polygon fill="#FFFFFF" points="794.162,25.169 786.539,25.169 786.539,53.629 774.844,53.629 774.844,25.169 767.218,25.169 
		767.218,15.115 774.844,15.115 774.844,3.679 786.539,3.679 786.539,15.115 794.162,15.115 	"/>
	<path fill="#FFFFFF" d="M797.972,15.115h11.696v3.943c2.301-3.088,5.848-4.863,10.779-4.863c8.936,0,15.051,6.504,15.051,17.154
		v22.28h-11.703V33.323c0-5.852-2.363-9.073-6.768-9.073c-4.6,0-7.359,3.615-7.359,9.596v19.784h-11.696V15.115z"/>
	<path fill="#FFFFFF" d="M839.758,34.376c0-11.707,8.283-20.185,20.047-20.185c11.769,0,20.048,8.417,20.048,20.185
		c0,1.115-0.069,2.363-0.264,3.741h-28.192c0.92,4.474,4.008,7.031,8.408,7.031c3.352,0,6.115-1.184,7.1-3.023h11.761
		c-1.97,7.367-9.523,12.421-18.86,12.421C848.041,54.545,839.758,46.132,839.758,34.376 M868.416,30.559
		c-0.988-4.6-4.008-7.1-8.611-7.1c-4.6,0-7.488,2.5-8.478,7.1H868.416z"/>
	<path fill="#FFFFFF" d="M885.098,15.115h11.695v3.943c2.302-3.088,5.852-4.863,10.783-4.863c2.172,0,3.546,0.13,5.058,0.657
		l0.134,10.978c-1.646-0.859-3.68-1.317-5.981-1.317c-6.245,0-9.993,3.55-9.993,9.398v19.719h-11.695V15.115z"/>
	<path fill="#FFFFFF" d="M950.419,26.681h-11.306c-0.394-2.363-3.088-3.813-6.505-3.813c-3.55,0-6.111,1.252-6.111,2.958
		c0,1.909,2.562,2.825,9.139,3.878c11.367,1.706,15.44,5.458,15.44,12.092c0,7.887-8.275,12.749-18.07,12.749
		c-10.055,0-17.682-4.985-18.078-13.077h11.307c0.393,2.496,3.282,4.146,6.97,4.146c3.745,0,6.508-1.382,6.508-3.161
		c0-1.84-2.634-3.022-9.271-4.008c-9.203-1.382-15.245-4.202-15.245-12.023c0-7.493,7.817-12.227,17.611-12.227
		C942.403,14.195,949.957,19.058,950.419,26.681"/>
	<path fill="#FFFFFF" d="M994.763,21.299l7.172-7.172c5.157-5.153,1.508-13.967-5.786-13.967h-25.915
		c-4.522,0-8.188,3.661-8.188,8.184v37.492c0,4.519,3.665,8.184,8.188,8.184h45.672l-21.143-21.147
		C991.571,29.677,991.571,24.494,994.763,21.299"/>
</g>
</svg>
