<?xml version="1.0" encoding="utf-8"?>
<!-- Generator: Adobe Illustrator 16.0.0, SVG Export Plug-In . SVG Version: 6.00 Build 0)  -->
<!DOCTYPE svg PUBLIC "-//W3C//DTD SVG 1.1//EN" "http://www.w3.org/Graphics/SVG/1.1/DTD/svg11.dtd">
<svg version="1.1" id="Layer_1" xmlns="http://www.w3.org/2000/svg" xmlns:xlink="http://www.w3.org/1999/xlink" x="0px" y="0px"
	 width="500px" height="69.601px" viewBox="0 0 500 69.601" enable-background="new 0 0 500 69.601" xml:space="preserve">
<g>
	<path fill="#F26A2E" d="M-516.455-0.061h23.309c11.917,0,18.63,6.189,18.63,15.995c0,3.823-2.565,8.169-6.256,9.548
		c5.135,1.65,8.761,6.654,8.761,11.856c0,9.938-7.11,16.259-19.161,16.259h-25.283V-0.061z M-493.672,21.668
		c4.54,0,7.175-1.978,7.175-5.733c0-3.745-2.635-5.792-7.175-5.792h-10.801v11.525H-493.672z M-491.697,43.391
		c4.742,0,7.705-2.104,7.705-6.053c0-3.95-2.962-6.059-7.705-6.059h-12.776v12.112H-491.697z"/>
	<polygon fill="#F26A2E" points="-447.309,33.123 -454.617,41.555 -454.617,53.597 -466.6,53.597 -466.6,-0.061 -454.617,-0.061 
		-454.617,25.219 -433.155,-0.061 -418.474,-0.061 -439.544,24.233 -417.352,53.597 -432.296,53.597 	"/>
	<path fill="#18142F" d="M-395.746,15.014h11.723v3.95c2.303-3.093,5.994-4.87,11.064-4.87c11.059,0,18.759,8.495,18.759,20.216
		c0,11.715-7.7,20.209-18.759,20.209c-5.07,0-8.761-1.776-11.064-4.871v20.013h-11.723V15.014z M-365.651,34.31
		c0-5.929-3.557-10.211-9.158-10.211c-5.721,0-9.413,4.282-9.413,10.211c0,5.925,3.691,10.207,9.413,10.207
		C-369.208,44.516-365.651,40.235-365.651,34.31"/>
	<path fill="#18142F" d="M-350.957,34.31c0-11.721,7.701-20.216,18.764-20.216c5.07,0,8.752,1.777,11.064,4.87v-3.95h11.713v38.583
		h-11.713v-3.949c-2.312,3.095-5.994,4.871-11.064,4.871C-343.256,54.519-350.957,46.025-350.957,34.31 M-320.935,34.31
		c0-5.929-3.687-10.211-9.417-10.211c-5.596,0-9.148,4.282-9.148,10.211c0,5.925,3.552,10.207,9.148,10.207
		C-324.622,44.516-320.935,40.235-320.935,34.31"/>
	<path fill="#18142F" d="M-302.232,15.014h11.72v3.95c2.306-3.093,5.864-4.87,10.8-4.87c2.173,0,3.558,0.132,5.071,0.655
		l0.133,10.999c-1.647-0.853-3.686-1.316-5.993-1.316c-6.251,0-10.011,3.557-10.011,9.414v19.752h-11.72V15.014z"/>
	<polygon fill="#18142F" points="-245.792,25.088 -253.432,25.088 -253.432,53.602 -265.151,53.602 -265.151,25.088 
		-272.787,25.088 -272.787,15.016 -265.151,15.016 -265.151,3.561 -253.432,3.561 -253.432,15.016 -245.792,15.016 	"/>
	<path fill="#18142F" d="M-241.976,15.014h11.718v3.95c2.308-3.093,5.869-4.87,10.806-4.87c8.95,0,15.073,6.519,15.073,17.186
		v22.318h-11.713V33.254c0-5.861-2.373-9.089-6.788-9.089c-4.604,0-7.377,3.625-7.377,9.615v19.817h-11.718V15.014z"/>
	<path fill="#18142F" d="M-200.088,34.31c0-11.721,8.295-20.216,20.079-20.216c11.788,0,20.083,8.427,20.083,20.216
		c0,1.119-0.065,2.366-0.263,3.748h-28.245c0.922,4.485,4.018,7.05,8.425,7.05c3.358,0,6.127-1.181,7.113-3.031h11.789
		c-1.975,7.378-9.551,12.443-18.902,12.443C-191.793,54.519-200.088,46.095-200.088,34.31 M-171.378,30.486
		c-0.987-4.607-4.018-7.11-8.631-7.11c-4.605,0-7.502,2.503-8.49,7.11H-171.378z"/>
	<path fill="#18142F" d="M-154.653,15.014h11.72v3.95c2.306-3.093,5.868-4.87,10.804-4.87c2.169,0,3.553,0.132,5.071,0.655
		l0.128,10.999c-1.646-0.853-3.686-1.316-5.993-1.316c-6.251,0-10.011,3.557-10.011,9.414v19.752h-11.72V15.014z"/>
	<path fill="#18142F" d="M-89.194,26.604h-11.328c-0.396-2.372-3.094-3.815-6.514-3.815c-3.557,0-6.127,1.244-6.127,2.961
		c0,1.908,2.57,2.828,9.154,3.883c11.392,1.708,15.475,5.467,15.475,12.115c0,7.899-8.296,12.771-18.105,12.771
		c-10.076,0-17.712-5.001-18.109-13.099h11.322c0.397,2.506,3.295,4.148,6.981,4.148c3.755,0,6.515-1.385,6.515-3.16
		c0-1.841-2.631-3.031-9.284-4.02c-9.213-1.381-15.271-4.211-15.271-12.047c0-7.509,7.831-12.248,17.644-12.248
		C-97.227,14.094-89.65,18.967-89.194,26.604"/>
	<path fill="#18142F" d="M-44.736,21.201l7.188-7.185c5.167-5.167,1.508-14.003-5.8-14.003h-25.975c-4.531,0-8.203,3.67-8.203,8.202
		V45.79c0,4.531,3.672,8.199,8.203,8.199h45.777L-44.736,32.8C-47.938,29.598-47.938,24.406-44.736,21.201"/>
</g>
<g>
	<path fill="#F26A2E" d="M4.095,0.003h23.269c11.895,0,18.598,6.176,18.598,15.971c0,3.813-2.565,8.15-6.245,9.532
		c5.13,1.641,8.741,6.634,8.741,11.826c0,9.924-7.1,16.237-19.123,16.237H4.095V0.003z M26.833,21.692
		c4.535,0,7.165-1.974,7.165-5.718c0-3.748-2.63-5.783-7.165-5.783H16.054v11.501H26.833z M28.807,43.377
		c4.733,0,7.688-2.1,7.688-6.046c0-3.94-2.954-6.047-7.688-6.047H16.054v12.093H28.807z"/>
	<polygon fill="#F26A2E" points="73.093,33.128 65.795,41.545 65.795,53.569 53.836,53.569 53.836,0 65.795,0 65.795,25.238 
		87.22,0 101.877,0 80.85,24.253 102.992,53.569 88.078,53.569 	"/>
	<path fill="#FFFFFF" d="M124.539,15.054h11.696v3.943c2.302-3.088,5.985-4.863,11.047-4.863c11.039,0,18.734,8.478,18.734,20.177
		c0,11.7-7.695,20.173-18.734,20.173c-5.062,0-8.745-1.771-11.047-4.862v19.979h-11.696V15.054z M154.58,34.312
		c0-5.92-3.55-10.188-9.142-10.188c-5.714,0-9.394,4.267-9.394,10.188c0,5.913,3.68,10.188,9.394,10.188
		C151.03,44.5,154.58,40.224,154.58,34.312"/>
	<path fill="#FFFFFF" d="M169.223,34.312c0-11.699,7.688-20.177,18.734-20.177c5.054,0,8.733,1.775,11.035,4.863v-3.943h11.699
		v38.515h-11.699v-3.946c-2.302,3.092-5.981,4.862-11.035,4.862C176.91,54.485,169.223,46.011,169.223,34.312 M199.187,34.312
		c0-5.92-3.676-10.188-9.397-10.188c-5.58,0-9.131,4.267-9.131,10.188c0,5.913,3.551,10.188,9.131,10.188
		C195.511,44.5,199.187,40.224,199.187,34.312"/>
	<path fill="#FFFFFF" d="M217.845,15.054h11.696v3.943c2.301-3.088,5.852-4.863,10.787-4.863c2.168,0,3.542,0.13,5.053,0.657
		l0.134,10.978c-1.645-0.859-3.683-1.317-5.981-1.317c-6.244,0-9.992,3.55-9.992,9.398v19.719h-11.696V15.054z"/>
	<polygon fill="#FFFFFF" points="274.162,25.109 266.539,25.109 266.539,53.569 254.844,53.569 254.844,25.109 247.218,25.109 
		247.218,15.054 254.844,15.054 254.844,3.619 266.539,3.619 266.539,15.054 274.162,15.054 	"/>
	<path fill="#FFFFFF" d="M277.972,15.054h11.696v3.943c2.301-3.088,5.848-4.863,10.779-4.863c8.936,0,15.051,6.504,15.051,17.154
		v22.28h-11.703V33.262c0-5.852-2.363-9.073-6.768-9.073c-4.6,0-7.359,3.615-7.359,9.596v19.784h-11.696V15.054z"/>
	<path fill="#FFFFFF" d="M319.758,34.315c0-11.707,8.283-20.185,20.047-20.185c11.769,0,20.048,8.417,20.048,20.185
		c0,1.115-0.069,2.363-0.264,3.741h-28.192c0.92,4.474,4.008,7.031,8.408,7.031c3.352,0,6.115-1.184,7.1-3.023h11.761
		c-1.97,7.367-9.523,12.421-18.86,12.421C328.041,54.485,319.758,46.072,319.758,34.315 M348.416,30.499
		c-0.988-4.6-4.008-7.1-8.611-7.1c-4.6,0-7.488,2.5-8.478,7.1H348.416z"/>
	<path fill="#FFFFFF" d="M365.098,15.054h11.695v3.943c2.302-3.088,5.852-4.863,10.783-4.863c2.172,0,3.546,0.13,5.058,0.657
		l0.134,10.978c-1.646-0.859-3.68-1.317-5.981-1.317c-6.245,0-9.993,3.55-9.993,9.398v19.719h-11.695V15.054z"/>
	<path fill="#FFFFFF" d="M430.419,26.62h-11.306c-0.394-2.363-3.088-3.813-6.505-3.813c-3.55,0-6.111,1.252-6.111,2.958
		c0,1.909,2.562,2.825,9.139,3.878c11.367,1.706,15.44,5.458,15.44,12.092c0,7.887-8.275,12.749-18.07,12.749
		c-10.055,0-17.682-4.985-18.078-13.077h11.307c0.393,2.496,3.282,4.146,6.97,4.146c3.745,0,6.508-1.382,6.508-3.161
		c0-1.84-2.634-3.022-9.271-4.008c-9.203-1.382-15.245-4.202-15.245-12.023c0-7.493,7.817-12.227,17.611-12.227
		C422.403,14.134,429.957,18.998,430.419,26.62"/>
	<path fill="#FFFFFF" d="M474.763,21.238l7.172-7.172c5.157-5.153,1.508-13.967-5.786-13.967h-25.915
		c-4.522,0-8.188,3.661-8.188,8.184v37.492c0,4.519,3.665,8.184,8.188,8.184h45.672l-21.143-21.147
		C471.571,29.617,471.571,24.433,474.763,21.238"/>
</g>
</svg>
